<svg width="252" height="55" viewBox="0 0 252 55" fill="none" xmlns="http://www.w3.org/2000/svg">
<path d="M18.8312 20.9319L9.42184 16.0693L0 20.9319V30.6349L9.42184 35.4864L18.8312 30.6349V20.9319ZM16.8051 29.5913L9.42184 33.3881L2.03851 29.5913V21.9755L9.42184 18.1676L16.8051 21.9755V29.5913Z" fill="white"/>
<path d="M39.1689 20.9208L30.124 16.0693L21.0909 20.9208V30.6238L30.124 35.4864L39.1689 30.6238V20.9208Z" fill="white"/>
<path d="M50.838 16.0693L41.4286 20.9319V30.6349L50.838 35.4864L60.2598 30.6349V20.9319L50.838 16.0693ZM58.2215 29.5913L50.838 33.3881L43.4547 29.5913V21.9755L50.838 18.1676L58.2215 21.9755V29.5913Z" fill="white"/>
<path d="M10.5455 37.001V46.704L19.9797 51.5555L29.3766 46.704V37.001L19.9797 32.1384L10.5455 37.001ZM27.316 45.6937L19.9797 49.4572L12.5316 45.6937V38.0446L19.9797 34.2367L27.3408 38.0446L27.316 45.6937Z" fill="white"/>
<path d="M30.8831 37.001V46.704L40.2924 51.5555L49.7143 46.704V37.001L40.2924 32.1384L30.8831 37.001ZM47.6758 45.6937L40.2924 49.4906L32.9216 45.6937V38.0446L40.2924 34.2367L47.6758 38.0446V45.6937Z" fill="white"/>
<path d="M29.3766 14.5655V4.82928L19.9922 0L10.5455 4.82928V14.5322L19.9922 19.417L29.3766 14.5655ZM12.5343 5.93946L19.9922 2.09824L27.3382 5.93946V13.5553L19.9922 17.3188L12.5343 13.5219V5.93946Z" fill="white"/>
<path d="M49.7143 14.5988V4.86256L40.2924 0L30.8831 4.86256V14.5655L40.2924 19.417L49.7143 14.5988ZM32.9216 5.97274L40.2924 2.16486L47.6758 5.97274V13.5886L40.2924 17.3854L32.9216 13.5886V5.97274Z" fill="white"/>
<path d="M82.8347 26.3776C82.9307 25.8976 82.9787 25.4056 82.9787 24.9016C82.9787 22.5736 81.8387 21.4096 79.5587 21.4096C78.5267 21.4096 77.6507 21.6256 76.9307 22.0576C76.2587 22.8496 75.9227 23.7976 75.9227 24.9016C75.9227 25.6216 76.2347 26.2456 76.8587 26.7736C77.4827 27.2776 78.2507 27.6736 79.1627 27.9616C80.0987 28.2496 81.1067 28.6096 82.1867 29.0416C83.2667 29.4736 84.2627 29.9416 85.1747 30.4456C86.1107 30.9256 86.8907 31.6576 87.5147 32.6416C88.1387 33.6016 88.4507 34.7416 88.4507 36.0616C88.4507 38.5816 87.4787 40.6336 85.5347 42.2176C83.6147 43.8016 81.2987 44.5936 78.5867 44.5936C76.4027 44.5936 74.5427 44.0536 73.0067 42.9736C71.4947 41.8696 70.7387 40.3336 70.7387 38.3656C70.7387 37.3576 71.0387 36.5176 71.6387 35.8456C72.2627 35.1496 72.9947 34.8016 73.8347 34.8016C74.6987 34.8016 75.3347 34.9096 75.7427 35.1256C75.5507 35.8456 75.4547 36.4936 75.4547 37.0696C75.4547 38.3656 75.8147 39.3976 76.5347 40.1656C77.2787 40.9096 78.2987 41.2816 79.5947 41.2816C80.8907 41.2816 81.9347 40.9456 82.7267 40.2736C83.5187 39.6016 83.9147 38.7136 83.9147 37.6096C83.9147 36.4816 83.4707 35.5576 82.5827 34.8376C81.7187 34.1176 80.6627 33.5416 79.4147 33.1096C78.1667 32.6776 76.9187 32.2216 75.6707 31.7416C74.4227 31.2616 73.3547 30.5536 72.4667 29.6176C71.6027 28.6576 71.1707 27.4576 71.1707 26.0176C71.1707 23.7616 72.1427 21.8896 74.0867 20.4016C76.0547 18.9136 78.2747 18.1696 80.7467 18.1696C82.5707 18.1696 84.1427 18.5416 85.4627 19.2856C86.8067 20.0056 87.4787 21.1096 87.4787 22.5976C87.4787 23.6776 87.1307 24.6016 86.4347 25.3696C85.7387 26.1136 84.8627 26.4856 83.8067 26.4856C83.5187 26.4856 83.1947 26.4496 82.8347 26.3776ZM108.018 29.6176L107.658 37.5376C107.658 39.6496 108.006 41.7856 108.702 43.9456C107.958 44.2336 107.202 44.3776 106.434 44.3776C104.346 44.3776 103.302 43.2736 103.302 41.0656C103.302 39.4336 103.446 37.5136 103.734 35.3056C104.022 33.0976 104.166 31.7416 104.166 31.2376C104.166 29.9896 103.602 29.3656 102.474 29.3656C101.274 29.3656 99.9416 30.4936 98.4776 32.7496C97.0136 34.9816 96.1736 36.8536 95.9575 38.3656C96.0056 39.0616 96.2456 40.8496 96.6776 43.7296C95.9336 44.0176 95.1176 44.1616 94.2296 44.1616C92.3815 44.1616 91.4575 43.2616 91.4575 41.4616C91.4575 40.5976 91.5895 38.9056 91.8535 36.3856C92.1175 33.8416 92.2495 31.8016 92.2495 30.2656C92.2495 25.1536 91.9615 20.9296 91.3855 17.5936C92.1535 17.3056 92.9456 17.1616 93.7616 17.1616C94.5776 17.1616 95.2496 17.4376 95.7776 17.9896C96.3296 18.5176 96.6056 19.2496 96.6056 20.1856C96.6056 21.1216 96.4736 23.0536 96.2095 25.9816C95.9696 28.9096 95.8496 31.1896 95.8496 32.8216C96.6896 31.0456 97.9136 29.4256 99.5216 27.9616C101.154 26.4736 102.774 25.7296 104.382 25.7296C106.806 25.7296 108.018 27.0256 108.018 29.6176ZM112.518 26.2696C113.286 26.0536 114.054 25.9456 114.822 25.9456C115.614 25.9456 116.286 26.1856 116.838 26.6656C117.39 27.1456 117.666 27.7696 117.666 28.5376C117.666 29.2816 117.534 30.5896 117.27 32.4616C117.03 34.3096 116.91 35.7496 116.91 36.7816C116.91 39.4696 117.162 41.7856 117.666 43.7296C116.922 44.0176 116.118 44.1616 115.254 44.1616C114.39 44.1616 113.706 43.9696 113.202 43.5856C112.698 43.1776 112.446 42.6016 112.446 41.8576C112.446 41.0896 112.59 39.8416 112.878 38.1136C113.166 36.3856 113.31 34.9576 113.31 33.8296C113.31 30.8296 113.046 28.3096 112.518 26.2696ZM112.986 18.1336C113.826 17.7496 114.654 17.5576 115.47 17.5576C116.286 17.5576 116.886 17.7736 117.27 18.2056C117.678 18.6136 117.882 19.2256 117.882 20.0416C117.882 20.8576 117.606 21.5776 117.054 22.2016C116.526 22.8256 115.83 23.1376 114.966 23.1376C113.19 23.1376 112.302 22.2136 112.302 20.3656C112.302 19.5496 112.53 18.8056 112.986 18.1336ZM149.054 29.6176L148.694 37.3216C148.694 39.6496 149.03 41.8576 149.702 43.9456C149.03 44.2336 148.262 44.3776 147.398 44.3776C145.358 44.3776 144.338 43.2376 144.338 40.9576C144.338 39.9256 144.47 38.1976 144.734 35.7736C144.998 33.3256 145.13 31.7896 145.13 31.1656C145.13 29.9656 144.638 29.3656 143.654 29.3656C142.574 29.3656 141.278 30.4696 139.766 32.6776C138.278 34.8856 137.534 36.6136 137.534 37.8616C137.654 39.7576 137.99 41.6416 138.542 43.5136C137.63 43.8016 136.862 43.9456 136.238 43.9456C134.198 43.9456 133.178 42.8056 133.178 40.5256C133.178 39.5656 133.31 37.9576 133.574 35.7016C133.838 33.4456 133.97 32.0296 133.97 31.4536C133.97 30.2536 133.43 29.6536 132.35 29.6536C131.606 29.6536 130.754 30.2056 129.794 31.3096C128.834 32.4136 128.018 33.6376 127.346 34.9816C126.698 36.3016 126.35 37.3576 126.302 38.1496C126.422 40.2136 126.662 42.0736 127.022 43.7296C126.254 44.0176 125.45 44.1616 124.61 44.1616C123.794 44.1616 123.122 43.9696 122.594 43.5856C122.09 43.1776 121.838 42.6256 121.838 41.9296C121.838 41.2096 121.946 39.9376 122.162 38.1136C122.378 36.2656 122.486 34.4416 122.486 32.6416C122.486 30.8176 122.21 28.7296 121.658 26.3776C122.426 26.0896 123.242 25.9456 124.106 25.9456C124.97 25.9456 125.666 26.1976 126.194 26.7016C126.746 27.2056 127.022 27.8776 127.022 28.7176C127.022 29.1496 126.938 30.2056 126.77 31.8856C127.658 30.3016 128.786 28.9336 130.154 27.7816C131.522 26.6056 132.89 26.0176 134.258 26.0176C136.682 26.0176 137.894 27.3136 137.894 29.9056C137.894 30.5536 137.858 31.2736 137.786 32.0656C138.674 30.3856 139.814 28.9096 141.206 27.6376C142.622 26.3656 144.026 25.7296 145.418 25.7296C147.842 25.7296 149.054 27.0256 149.054 29.6176ZM153.762 40.4896L154.122 33.0016C154.122 30.6736 153.786 28.4656 153.114 26.3776C153.786 26.0896 154.614 25.9456 155.598 25.9456C157.518 25.9456 158.478 27.0136 158.478 29.1496C158.478 30.3496 158.346 32.0416 158.082 34.2256C157.818 36.3856 157.686 37.9576 157.686 38.9416C157.686 40.1416 158.226 40.7416 159.306 40.7416C159.954 40.7416 160.71 40.2016 161.574 39.1216C162.462 38.0176 163.218 36.7936 163.842 35.4496C164.49 34.0816 164.874 32.9656 164.994 32.1016C164.85 29.4616 164.646 27.5536 164.382 26.3776C165.15 26.0896 165.93 25.9456 166.722 25.9456C167.538 25.9456 168.21 26.1976 168.738 26.7016C169.29 27.2056 169.566 27.8296 169.566 28.5736C169.566 29.3176 169.458 30.5536 169.242 32.2816C169.026 34.0096 168.918 35.8216 168.918 37.7176C168.918 39.5896 169.134 41.5936 169.566 43.7296C168.63 44.0176 167.79 44.1616 167.046 44.1616C165.558 44.1616 164.814 43.1776 164.814 41.2096C164.814 40.3456 164.91 39.1456 165.102 37.6096C164.142 39.6496 162.966 41.2936 161.574 42.5416C160.206 43.7656 158.814 44.3776 157.398 44.3776C154.974 44.3776 153.762 43.0816 153.762 40.4896ZM173.625 17.5936C174.393 17.3056 175.185 17.1616 176.001 17.1616C176.817 17.1616 177.489 17.4376 178.017 17.9896C178.569 18.5176 178.845 19.2496 178.845 20.1856C178.845 21.0976 178.713 22.9456 178.449 25.7296C178.209 28.4896 178.089 30.6616 178.089 32.2456C178.089 36.1576 178.365 39.9856 178.917 43.7296C178.149 44.0176 177.333 44.1616 176.469 44.1616C174.621 44.1616 173.697 43.2616 173.697 41.4616C173.697 40.5976 173.829 38.9056 174.093 36.3856C174.357 33.8416 174.489 31.8016 174.489 30.2656C174.489 25.1536 174.201 20.9296 173.625 17.5936ZM183.473 39.3376C184.241 38.9296 185.021 38.7256 185.813 38.7256C187.589 38.7256 188.477 39.5536 188.477 41.2096C188.477 42.0976 188.177 42.8536 187.577 43.4776C186.977 44.0776 186.257 44.3776 185.417 44.3776C184.577 44.3776 183.929 44.1376 183.473 43.6576C183.041 43.1776 182.825 42.5296 182.825 41.7136C182.825 40.8736 183.041 40.0816 183.473 39.3376ZM192.431 42.5416C193.175 38.9656 193.547 35.2576 193.547 31.4176C193.547 27.5776 193.247 23.6896 192.647 19.7536C195.911 18.8416 198.803 18.3856 201.323 18.3856C205.067 18.3856 207.911 19.3696 209.855 21.3376C211.823 23.2816 212.807 26.2456 212.807 30.2296C212.807 34.2136 211.691 37.5736 209.459 40.3096C207.251 43.0216 204.179 44.3776 200.243 44.3776C197.555 44.3776 194.951 43.7656 192.431 42.5416ZM198.011 22.0216C197.795 24.9496 197.687 27.7936 197.687 30.5536C197.687 33.2896 197.819 36.6016 198.083 40.4896C199.067 40.8256 200.171 40.9936 201.395 40.9936C202.619 40.9936 203.675 40.7176 204.563 40.1656C205.475 39.5896 206.171 38.8096 206.651 37.8256C207.587 35.9536 208.055 33.6616 208.055 30.9496C208.055 28.3336 207.551 26.1736 206.543 24.4696C205.439 22.5496 203.723 21.5896 201.395 21.5896C200.123 21.5896 198.995 21.7336 198.011 22.0216ZM219.008 35.9896C219.008 37.7176 219.284 39.0856 219.836 40.0936C220.388 41.0776 221.312 41.5696 222.608 41.5696C223.904 41.5696 224.912 41.1376 225.632 40.2736C226.376 39.3856 226.748 38.3176 226.748 37.0696C227.564 37.0696 228.272 37.2736 228.872 37.6816C229.472 38.0896 229.772 38.6536 229.772 39.3736C229.772 40.8616 228.98 42.1096 227.396 43.1176C225.812 44.1016 224.144 44.5936 222.392 44.5936C219.656 44.5936 217.676 43.8616 216.452 42.3976C215.228 40.9096 214.616 38.7136 214.616 35.8096C214.616 32.9056 215.432 30.4696 217.064 28.5016C218.72 26.5096 220.916 25.5136 223.652 25.5136C225.524 25.5136 227.024 25.9456 228.152 26.8096C229.304 27.6496 229.88 28.9696 229.88 30.7696C229.88 32.5456 229.064 33.8896 227.432 34.8016C225.824 35.6896 223.856 36.1336 221.528 36.1336C220.712 36.1336 219.872 36.0856 219.008 35.9896ZM219.044 33.1456C219.764 33.2896 220.52 33.3616 221.312 33.3616C223.04 33.3616 224.492 33.0376 225.668 32.3896C225.812 31.8136 225.884 31.3576 225.884 31.0216C225.884 30.1816 225.584 29.5456 224.984 29.1136C224.384 28.6816 223.556 28.4656 222.5 28.4656C221.468 28.4656 220.532 28.8016 219.692 29.4736C219.26 30.7216 219.044 31.9456 219.044 33.1456ZM247.352 38.4736C246.512 40.1056 245.456 41.4976 244.184 42.6496C242.912 43.8016 241.64 44.3776 240.368 44.3776C239.096 44.3776 238.112 43.9456 237.416 43.0816C236.744 42.1936 236.264 41.0656 235.976 39.6976C235.688 38.3056 235.424 36.8776 235.184 35.4136C234.968 33.9496 234.584 32.5216 234.032 31.1296C233.48 29.7376 232.724 28.6936 231.764 27.9976C232.076 27.4216 232.544 26.9416 233.168 26.5576C233.792 26.1496 234.464 25.9456 235.184 25.9456C236.312 25.9456 237.224 26.6776 237.92 28.1416C238.616 29.5816 239.06 31.1776 239.252 32.9296C239.468 34.6816 239.696 36.3856 239.936 38.0416C240.2 39.6736 240.5 40.6096 240.836 40.8496C241.652 40.8016 242.36 40.2856 242.96 39.3016C243.584 38.2936 244.04 37.0816 244.328 35.6656C244.856 33.0736 245.12 31.0456 245.12 29.5816C245.12 28.1176 245.048 26.9896 244.904 26.1976C245.744 26.0296 246.464 25.9456 247.064 25.9456C249.128 25.9456 250.16 26.9296 250.16 28.8976C250.16 30.1456 249.896 31.6456 249.368 33.3976C248.864 35.1256 248.192 36.8176 247.352 38.4736Z" fill="white"/>
</svg>
