<svg width="45" height="44" viewBox="0 0 45 44" fill="none" xmlns="http://www.w3.org/2000/svg">
<path d="M7.05417 6.04235C15.6351 -1.98094 29.1902 -2.16083 37.915 6.38415C39.2013 7.6524 37.3394 9.72119 35.9002 8.31801C28.2727 0.906366 16.4896 1.09526 9.01502 8.03018C7.54888 9.38838 5.73195 7.28362 7.05417 6.04235ZM15.9499 43.6942C17.6859 44.2069 18.5854 41.5715 16.6605 40.9958C6.56846 37.9466 0.847818 27.5307 3.39332 17.5196C3.84306 15.7566 1.15364 14.9921 0.676919 16.881C-2.21039 28.3403 4.37375 40.2493 15.9499 43.6942ZM29.2711 43.5143C40.2357 39.8985 46.6219 28.5022 44.0584 17.3397C43.6537 15.5678 40.9193 16.0984 41.36 18.0503C43.5367 27.7376 38.023 37.6498 28.4796 40.8429C26.5727 41.4725 27.5441 44.081 29.2711 43.5143ZM23.6134 36.4085L23.6314 29.9503C23.6314 29.2127 23.0378 28.6191 22.3002 28.6191C21.5627 28.6191 20.969 29.2217 20.969 29.9503L20.951 36.4085C20.951 37.1461 21.5447 37.7397 22.2822 37.7397C23.0198 37.7397 23.6134 37.1461 23.6134 36.4085ZM29.9997 12.2127C30.1886 20.3889 30.4224 24.0768 22.3092 24.1307C13.9891 24.0678 14.4928 20.1461 14.6187 12.2127C14.6187 10.2519 11.6954 10.4498 11.6954 12.2127V18.6529C11.6954 24.8863 17.1552 26.8291 22.3092 26.7572C27.4632 26.8291 32.923 24.8863 32.923 18.6529V12.2127C32.923 10.4498 29.9997 10.2519 29.9997 12.2127Z" fill="white"/>
</svg>
